HIERARCHY
ROOT RootJoint
{
    OFFSET   0.000000   0.000000   0.000000
    CHANNELS 6 Xposition Yposition Zposition Xrotation Yrotation Zrotation
    JOINT pelvis_lowerback
    {
        OFFSET   0.000000   0.093605   0.000000
        CHANNELS 3 Xrotation Yrotation Zrotation
        JOINT lowerback_torso
        {
            OFFSET   0.000000   0.100000   0.000000
            CHANNELS 3 Xrotation Yrotation Zrotation
            JOINT torso_head
            {
                OFFSET   0.000000   0.282350   0.000000
                CHANNELS 3 Xrotation Yrotation Zrotation
                End Site
                {
                    OFFSET   0.000000   0.192650   0.000000
                }
            }
            JOINT rTorso_Clavicle
            {
                OFFSET  -0.001000   0.157500   0.000000
                CHANNELS 3 Xrotation Yrotation Zrotation
                JOINT rShoulder
                {
                    OFFSET  -0.117647   0.000000   0.000000
                    CHANNELS 3 Xrotation Yrotation Zrotation
                    JOINT rElbow
                    {
                        OFFSET  -0.245000   0.000000   0.000000
                        CHANNELS 3 Xrotation Yrotation Zrotation
                        JOINT rWrist
                        {
                            OFFSET  -0.240000   0.000000   0.000000
                            CHANNELS 3 Xrotation Yrotation Zrotation
                            End Site
                            {
                                OFFSET  -0.116353  -0.002500   0.000000
                            }
                        }
                    }
                }
            }
            JOINT lTorso_Clavicle
            {
                OFFSET   0.001000   0.157500   0.000000
                CHANNELS 3 Xrotation Yrotation Zrotation
                JOINT lShoulder
                {
                    OFFSET   0.117647   0.000000   0.000000
                    CHANNELS 3 Xrotation Yrotation Zrotation
                    JOINT lElbow
                    {
                        OFFSET   0.245000   0.000000   0.000000
                        CHANNELS 3 Xrotation Yrotation Zrotation
                        JOINT lWrist
                        {
                            OFFSET   0.240000   0.000000   0.000000
                            CHANNELS 3 Xrotation Yrotation Zrotation
                            End Site
                            {
                                OFFSET   0.116353  -0.002500   0.000000
                            }
                        }
                    }
                }
            }
        }
    }
    JOINT rHip
    {
        OFFSET  -0.100000  -0.051395   0.000000
        CHANNELS 3 Xrotation Yrotation Zrotation
        JOINT rKnee
        {
            OFFSET   0.000000  -0.410000   0.000000
            CHANNELS 3 Xrotation Yrotation Zrotation
            JOINT rAnkle
            {
                OFFSET   0.000000  -0.390000   0.000000
                CHANNELS 3 Xrotation Yrotation Zrotation
                JOINT rToeJoint
                {
                    OFFSET   0.000000  -0.050000   0.130000
                    CHANNELS 3 Xrotation Yrotation Zrotation
                    End Site
                    {
                        OFFSET  -0.010000   0.002000   0.060000
                    }
                }
            }
        }
    }
    JOINT lHip
    {
        OFFSET   0.100000  -0.051395   0.000000
        CHANNELS 3 Xrotation Yrotation Zrotation
        JOINT lKnee
        {
            OFFSET   0.000000  -0.410000   0.000000
            CHANNELS 3 Xrotation Yrotation Zrotation
            JOINT lAnkle
            {
                OFFSET   0.000000  -0.390000   0.000000
                CHANNELS 3 Xrotation Yrotation Zrotation
                JOINT lToeJoint
                {
                    OFFSET   0.000000  -0.050000   0.130000
                    CHANNELS 3 Xrotation Yrotation Zrotation
                    End Site
                    {
                        OFFSET   0.010000   0.002000   0.060000
                    }
                }
            }
        }
    }
}
MOTION
Frames: 5
Frame Time:   0.008333
 -2.345454   0.668722   3.897238  13.951083  -2.750434  -2.892395  50.103528  -1.328447   0.444704  -9.908969  -1.145653  -2.380067 -15.764143   2.516116  -4.293664 -16.952589  36.832369   3.528488 -29.162742  24.853444  13.554385  -0.186127  30.321134   0.061950  -0.308077   2.448097  -8.589885 -19.138706 -30.599714  -0.677619 -29.566149 -19.135192 -12.426123  -0.229121 -33.158842  -0.109086  -4.311715  -5.466820   6.946914 -65.753786  -7.568762  -5.242665  91.597161   0.000484   0.001421 -39.456129  -8.625513  -1.936040  -0.532537  -0.000006   0.000924 -69.064669   2.375745   7.673074  96.321558   0.000051   0.000013 -34.290407   4.013799   1.439553 -11.534964  -0.004076  -0.002181
 -2.344145   0.672474   3.901273  13.526910  -2.806403  -2.975243  49.180699  -1.312662   0.339133  -9.823113  -1.303073  -2.300321 -15.374873   2.564988  -4.307756 -17.324239  37.458560   2.132258 -30.448752  25.806123  12.584995  -0.196906  31.562768   0.062358  -0.353469   2.368849  -8.652696 -19.310514 -31.299376   1.078070 -30.821147 -20.272968 -11.215731  -0.241861 -34.623143  -0.107495  -4.472705  -5.609286   6.968505 -64.531940  -7.730237  -5.306383  90.919764   0.000790   0.002707 -39.555133  -8.802013  -1.592639  -0.506519  -0.000056   0.000642 -68.228914   2.321035   7.641969  96.125170   0.000198   0.000181 -33.279410   4.049173   1.120405 -13.391934  -0.006982  -0.000623
 -2.342688   0.677144   3.905858  13.189932  -2.885989  -3.028540  48.203099  -1.268367   0.223866  -9.763007  -1.436836  -2.223107 -14.937426   2.608431  -4.327620 -17.704469  37.980021   0.732866 -31.654096  26.716827  11.603156  -0.203017  32.732599   0.061805  -0.382116   2.358124  -8.805707 -19.475508 -31.891421   2.843036 -31.984501 -21.367057 -10.014107  -0.249624 -36.005964  -0.104304  -4.605002  -5.860096   7.016173 -63.273395  -7.877513  -5.372382  90.067517   0.001148   0.004361 -39.584966  -8.964577  -1.278989  -0.504939  -0.000047   0.000507 -67.363379   2.308541   7.587801  95.776497   0.000462   0.000531 -32.140934   4.101952   0.837482 -15.393747  -0.009053   0.000719
 -2.341107   0.682277   3.911127  12.967743  -3.002185  -3.084541  47.109901  -1.193143   0.123511  -9.801188  -1.533032  -2.143238 -14.505496   2.648298  -4.347326 -18.064694  38.433208  -0.619066 -32.775727  27.579856  10.660378  -0.205109  33.825542   0.061032  -0.403891   2.361980  -9.024149 -19.625656 -32.390373   4.549880 -33.058907 -22.396094  -8.859351  -0.252849 -37.296593  -0.100671  -4.723003  -6.121863   7.134376 -62.046599  -8.023166  -5.414418  89.127925   0.001416   0.006092 -39.550629  -9.108936  -0.990660  -0.585878   0.000051   0.000711 -66.374697   2.311476   7.533932  95.252069   0.000929   0.001100 -30.858136   4.149647   0.608230 -19.295535  -0.011834   0.004306
 -2.339557   0.687817   3.917063  12.796025  -3.080144  -3.137775  45.966105  -1.113937   0.044399  -9.928167  -1.614413  -2.047179 -14.098786   2.684387  -4.362652 -18.404673  38.831738  -1.910764 -33.818819  28.393622   9.763203  -0.203748  34.843591   0.059936  -0.424116   2.355284  -9.293282 -19.764982 -32.827998   6.189077 -34.053405 -23.369889  -7.759692  -0.252260 -38.499748  -0.096791  -4.831518  -6.369475   7.314275 -60.794809  -8.157130  -5.462233  88.134872   0.001275   0.007480 -39.453092  -9.240429  -0.729063  -0.792372   0.000156   0.001253 -65.473756   2.342046   7.464686  94.763077   0.001044   0.001448 -29.825313   4.224974   0.450447 -20.923795  -0.010906   0.003941
